Coordinates
version=1
nRows=18
nColumns=63
inDegrees=yes

Units are S.I. units (second, meters, Newtons, ...)
If the header above contains a line with 'inDegrees', this indicates whether rotational values are in degrees (yes) or radians (no).

endheader
time	pelvis_tilt	pelvis_list	pelvis_rotation	pelvis_tx	pelvis_ty	pelvis_tz	hip_flexion_r	hip_adduction_r	hip_rotation_r	knee_angle_r	knee_angle_r_beta	ankle_angle_r	subtalar_angle_r	mtp_angle_r	hip_flexion_l	hip_adduction_l	hip_rotation_l	knee_angle_l	knee_angle_l_beta	ankle_angle_l	subtalar_angle_l	mtp_angle_l	L5_S1_Flex_Ext	L5_S1_Lat_Bending	L5_S1_axial_rotation	L4_L5_Flex_Ext	L4_L5_Lat_Bending	L4_L5_axial_rotation	L3_L4_Flex_Ext	L3_L4_Lat_Bending	L3_L4_axial_rotation	L2_L3_Flex_Ext	L2_L3_Lat_Bending	L2_L3_axial_rotation	L1_L2_Flex_Ext	L1_L2_Lat_Bending	L1_L2_axial_rotation	L1_T12_Flex_Ext	L1_T12_Lat_Bending	L1_T12_axial_rotation	Abs_r3	Abs_r2	Abs_r1	Abs_t1	Abs_t2	neck_flexion	neck_bending	neck_rotation	arm_flex_r	arm_add_r	arm_rot_r	elbow_flex_r	pro_sup_r	wrist_flex_r	wrist_dev_r	arm_flex_l	arm_add_l	arm_rot_l	elbow_flex_l	pro_sup_l	wrist_flex_l	wrist_dev_l
2.333333	-2.512930	-2.389880	95.946707	0.247327	0.708115	0.720588	-10.295397	-0.102343	-0.189144	4.870801	0.085012	26.869139	-3.923746	0.000000	-10.604675	1.360393	9.091229	0.312644	0.005457	29.482606	-5.055767	0.000000	0.159516	-0.093644	-0.681636	0.296237	-0.124547	-0.724238	0.262068	-0.227686	-0.724238	0.182310	-0.227686	-0.596432	0.148126	-0.190959	-0.553829	0.091147	-0.145055	-0.511227	1.139404	-1.059320	-3.791055	0.000000	0.000000	8.561135	0.181723	1.881801	-26.578072	-81.510498	-15.919397	18.514835	60.268033	-2.230160	4.336517	-61.942887	-83.932504	90.315545	5.812683	79.850200	-13.838307	14.264552
2.354167	-2.560771	-2.376124	96.008794	0.247464	0.708052	0.720518	-10.427163	-0.117845	-0.114494	4.620065	0.080635	26.785706	-4.095925	0.000000	-10.596937	1.386242	8.908734	0.334865	0.005844	29.659150	-4.644073	0.000000	0.166510	-0.103223	-0.726545	0.309225	-0.137286	-0.771955	0.273559	-0.250976	-0.771955	0.190304	-0.250976	-0.635727	0.154621	-0.210492	-0.590318	0.095144	-0.159892	-0.544909	1.189363	-1.167676	-4.040828	0.000000	0.000000	8.497005	0.172502	1.869518	-24.315786	-81.689426	-12.603799	18.356689	59.056872	-2.194602	4.186798	-64.471425	-83.740619	87.849359	5.775664	79.694799	-14.032469	14.432468
2.375000	-2.583746	-2.374129	96.079748	0.247551	0.707988	0.720420	-10.550662	-0.102489	0.042607	4.355499	0.076018	26.634845	-4.476175	0.000000	-10.584380	1.388260	8.832382	0.332354	0.005801	29.818626	-4.345725	0.000000	0.174146	-0.110499	-0.754479	0.323407	-0.146964	-0.801634	0.286105	-0.268668	-0.801634	0.199032	-0.268668	-0.660169	0.161712	-0.225330	-0.613014	0.099507	-0.171163	-0.565859	1.243911	-1.249989	-4.196187	0.000000	0.000000	8.403067	0.207413	1.734302	-22.520336	-81.818924	-9.592974	18.036188	57.556451	-2.035397	4.004829	-66.437021	-83.590580	85.474432	5.571882	79.873653	-14.038766	14.360562
2.395833	-2.595800	-2.388363	96.150686	0.247639	0.707906	0.720305	-10.647059	-0.077845	0.135713	4.111263	0.071755	26.482182	-4.843787	0.000000	-10.554607	1.380530	8.709284	0.329145	0.005745	29.988066	-3.970946	0.000000	0.181611	-0.118116	-0.763600	0.337270	-0.157095	-0.811325	0.298369	-0.287188	-0.811325	0.207563	-0.287188	-0.668150	0.168644	-0.240863	-0.620425	0.103773	-0.182962	-0.572700	1.297231	-1.336155	-4.246912	0.000000	0.000000	8.303112	0.325041	1.455403	-21.331818	-81.866946	-7.034260	17.622573	55.710173	-1.839026	3.872393	-67.905930	-83.535276	83.291887	5.285102	80.014522	-13.889797	14.071956
2.416667	-2.588374	-2.430920	96.218161	0.247690	0.707779	0.720187	-10.692573	-0.041688	0.157269	3.909052	0.068226	26.353248	-5.155945	0.000000	-10.494010	1.358404	8.542741	0.325885	0.005688	30.167544	-3.521149	0.000000	0.190177	-0.124100	-0.755850	0.353178	-0.165052	-0.803090	0.312442	-0.301736	-0.803090	0.217354	-0.301736	-0.661369	0.176599	-0.253064	-0.614128	0.108667	-0.192230	-0.566887	1.358417	-1.403839	-4.203810	0.000000	0.000000	8.241698	0.488143	1.099750	-20.839231	-81.853736	-5.025009	17.136998	53.663919	-1.606292	3.731208	-68.872646	-83.553418	81.454799	4.934612	79.989012	-13.629574	13.565492
2.437500	-2.551637	-2.481229	96.285280	0.247683	0.707650	0.720093	-10.712268	0.019398	0.126847	3.735504	0.065197	26.225768	-5.424457	0.000000	-10.422757	1.309791	8.416710	0.321473	0.005611	30.322213	-3.100498	0.000000	0.196783	-0.126537	-0.733362	0.365446	-0.168294	-0.779197	0.323295	-0.307662	-0.779197	0.224904	-0.307662	-0.641692	0.182733	-0.258034	-0.595857	0.112442	-0.196005	-0.550022	1.405604	-1.431409	-4.078740	0.000000	0.000000	8.221635	0.670707	0.691949	-20.916612	-81.817527	-3.384056	16.525709	51.455568	-1.302420	3.520963	-69.183383	-83.639151	80.028404	4.559484	80.055227	-13.244110	12.893486
2.458333	-2.501711	-2.534270	96.351523	0.247637	0.707525	0.720041	-10.703242	0.084862	-0.042809	3.610834	0.063021	26.152669	-5.498872	0.000000	-10.347691	1.248508	8.096467	0.318170	0.005553	30.509795	-2.388244	0.000000	0.200229	-0.127388	-0.699966	0.371845	-0.169426	-0.743713	0.328956	-0.309731	-0.743713	0.228842	-0.309731	-0.612470	0.185933	-0.259770	-0.568722	0.114411	-0.197324	-0.524974	1.430215	-1.441038	-3.892999	0.000000	0.000000	8.268213	0.880604	0.234725	-21.570059	-81.747364	-2.238501	15.902332	49.161361	-1.021501	3.317878	-68.993059	-83.785664	79.188518	4.180629	79.913066	-12.727441	12.105910
2.479167	-2.403411	-2.594051	96.398165	0.247490	0.707395	0.720027	-10.656836	0.187727	-0.191563	3.532032	0.061646	26.086798	-5.564469	0.000000	-10.267234	1.149293	7.921702	0.313355	0.005469	30.638293	-1.897984	0.000000	0.202876	-0.120180	-0.654970	0.376761	-0.159840	-0.695906	0.333305	-0.292206	-0.695906	0.231867	-0.292206	-0.573099	0.188391	-0.245071	-0.532163	0.115923	-0.186159	-0.491228	1.449122	-1.359503	-3.642747	0.000000	0.000000	8.383192	1.027109	-0.171221	-22.999294	-81.701357	-1.735035	15.289606	46.848861	-0.724637	3.093396	-68.156806	-83.941819	78.851120	3.834132	79.857811	-12.262953	11.374235
2.500000	-2.280021	-2.641051	96.418531	0.247307	0.707275	0.720035	-10.599749	0.305380	-0.379184	3.491295	0.060935	26.070266	-5.510516	0.000000	-10.206122	1.030545	7.734067	0.308361	0.005382	30.740450	-1.426631	0.000000	0.202392	-0.108365	-0.598086	0.375862	-0.144125	-0.635467	0.332510	-0.263478	-0.635467	0.231314	-0.263478	-0.523325	0.187941	-0.220977	-0.485945	0.115647	-0.167857	-0.448565	1.445666	-1.225843	-3.326376	0.000000	0.000000	8.561267	1.120442	-0.573055	-25.237842	-81.657575	-1.976098	14.768052	44.509590	-0.468008	2.838440	-66.778983	-84.138033	79.196437	3.546883	79.650261	-11.906156	10.722082
2.520833	-2.115119	-2.675079	96.411260	0.247051	0.707176	0.720063	-10.527902	0.451261	-0.636728	3.493688	0.060976	26.122233	-5.277407	0.000000	-10.163487	0.878029	7.547562	0.303167	0.005291	30.796512	-1.022146	0.000000	0.200606	-0.088751	-0.532574	0.372545	-0.118039	-0.565860	0.329575	-0.215790	-0.565860	0.229272	-0.215790	-0.466002	0.186282	-0.180982	-0.432716	0.114626	-0.137476	-0.399430	1.432905	-1.003973	-2.962017	0.000000	0.000000	8.770142	1.103596	-0.908601	-28.206427	-81.640384	-3.024398	14.352367	42.322376	-0.202929	2.541591	-64.752731	-84.343971	80.266306	3.319458	79.442951	-11.658927	10.171045
2.541667	-1.948037	-2.706385	96.406823	0.246795	0.707079	0.720096	-10.445405	0.601565	-0.850741	3.523209	0.061492	26.207964	-5.073672	0.000000	-10.130976	0.723822	7.668677	0.296003	0.005166	30.698648	-1.100464	0.000000	0.199270	-0.068310	-0.485352	0.370064	-0.090852	-0.515687	0.327380	-0.166088	-0.515687	0.227745	-0.166088	-0.424683	0.185042	-0.139297	-0.394349	0.113863	-0.105812	-0.364014	1.423364	-0.772734	-2.699382	0.000000	0.000000	9.010995	1.075359	-1.125195	-30.637004	-81.639498	-4.190025	14.053052	40.887550	0.059845	2.358321	-63.683604	-84.381197	80.030585	2.998315	79.593602	-11.611363	9.642284
2.562500	-1.777717	-2.721237	96.379339	0.246559	0.707002	0.720109	-10.371062	0.749374	-1.076328	3.572875	0.062358	26.341457	-4.781404	0.000000	-10.125324	0.568710	7.863777	0.287450	0.005017	30.507493	-1.376982	0.000000	0.197171	-0.046240	-0.439583	0.366165	-0.061499	-0.467057	0.323931	-0.112428	-0.467057	0.225346	-0.112428	-0.384635	0.183093	-0.094293	-0.357161	0.112663	-0.071626	-0.329687	1.408369	-0.523077	-2.444830	0.000000	0.000000	9.239643	1.000994	-1.300331	-33.248214	-81.646915	-5.968750	13.933603	39.910749	0.283073	2.223758	-62.619618	-84.403558	79.955721	2.729703	79.762081	-11.696669	9.194446
2.583333	-1.631564	-2.736259	96.331569	0.246388	0.706930	0.720118	-10.272170	0.859288	-1.522098	3.685883	0.064331	26.591791	-4.139250	0.000000	-10.116173	0.440258	7.991271	0.304108	0.005308	30.265555	-1.670595	0.000000	0.196703	-0.026841	-0.393852	0.365297	-0.035699	-0.418468	0.323163	-0.065261	-0.418468	0.224812	-0.065261	-0.344621	0.182658	-0.054734	-0.320005	0.112396	-0.041577	-0.295389	1.405030	-0.303631	-2.190488	0.000000	0.000000	9.430694	0.913815	-1.450348	-36.042829	-81.652963	-8.325572	14.012558	39.353173	0.443789	2.122066	-61.625684	-84.482364	80.161098	2.588919	79.719010	-11.868395	8.769396
2.604167	-1.489797	-2.729539	96.269231	0.246214	0.706909	0.720109	-10.211591	0.969308	-1.788726	3.772772	0.065847	26.770702	-3.712039	0.000000	-10.140335	0.317832	8.270179	0.303835	0.005303	29.928318	-2.257625	0.000000	0.195546	-0.006810	-0.361536	0.363149	-0.009057	-0.384132	0.321263	-0.016557	-0.384132	0.223490	-0.016557	-0.316344	0.181584	-0.013886	-0.293748	0.111735	-0.010548	-0.271152	1.396766	-0.077033	-2.010756	0.000000	0.000000	9.547200	0.804147	-1.510289	-37.594029	-81.804498	-9.211410	14.011404	38.747352	0.623386	1.826655	-60.677413	-84.457331	80.480945	2.440620	79.819972	-11.928581	8.345687
2.625000	-1.375114	-2.717364	96.200181	0.246069	0.706917	0.720079	-10.174208	1.056462	-1.860931	3.839343	0.067009	26.856578	-3.555290	0.000000	-10.168978	0.223193	8.532288	0.303010	0.005289	29.579534	-2.887284	0.000000	0.195499	0.010555	-0.334777	0.363061	0.014038	-0.355700	0.321185	0.025663	-0.355700	0.223435	0.025663	-0.292930	0.181540	0.021523	-0.272006	0.111708	0.016349	-0.251083	1.396428	0.119397	-1.861927	0.000000	0.000000	9.598185	0.681181	-1.527648	-38.759608	-81.987930	-10.059038	14.121124	38.635537	0.778211	1.459423	-59.826544	-84.439579	80.849608	2.392352	79.909579	-11.960914	7.970644
2.645833	-1.287735	-2.693979	96.122051	0.245954	0.706975	0.720065	-10.157116	1.113733	-1.945335	3.902402	0.068110	26.912611	-3.382120	0.000000	-10.201241	0.156405	8.623407	0.302192	0.005274	29.298440	-3.331074	0.000000	0.195229	0.025127	-0.313829	0.362559	0.033419	-0.333444	0.320741	0.061094	-0.333444	0.223127	0.061094	-0.274601	0.181289	0.051240	-0.254986	0.111554	0.038922	-0.235372	1.394500	0.284245	-1.745425	0.000000	0.000000	9.579677	0.550459	-1.513105	-39.468377	-82.274110	-10.247440	14.251136	38.489439	0.927320	0.921385	-58.947986	-84.430848	81.708866	2.464159	79.620764	-11.928400	7.707906
2.666667	-1.244095	-2.673287	96.050413	0.245891	0.707056	0.720041	-10.155806	1.130600	-1.995630	3.949988	0.068940	26.911663	-3.303762	0.000000	-10.223628	0.131029	8.653642	0.300564	0.005246	29.086231	-3.695436	0.000000	0.196582	0.033888	-0.301622	0.365072	0.045071	-0.320474	0.322965	0.082395	-0.320474	0.224674	0.082395	-0.263919	0.182546	0.069104	-0.245068	0.112327	0.052492	-0.226217	1.404165	0.383348	-1.677532	0.000000	0.000000	9.498013	0.450979	-1.481302	-39.661903	-82.511351	-10.664446	14.498355	39.168221	1.066942	0.422463	-58.491076	-84.415051	82.254396	2.638946	79.177286	-11.845180	7.501467
2.687500	-1.224068	-2.661382	95.996909	0.245837	0.707134	0.719991	-10.178384	1.137489	-1.725800	3.945373	0.068860	26.737992	-3.754596	0.000000	-10.228880	0.126792	8.640102	0.298052	0.005202	28.961920	-3.969092	0.000000	0.200458	0.039374	-0.291764	0.372271	0.052367	-0.310000	0.329333	0.095734	-0.310000	0.229104	0.095734	-0.255294	0.186146	0.080291	-0.237059	0.114542	0.060990	-0.218823	1.431853	0.445405	-1.622707	0.000000	0.000000	9.365992	0.359980	-1.464135	-40.001697	-82.738144	-11.435039	14.859317	40.037457	1.257032	-0.125781	-58.256914	-84.416632	82.211128	2.882747	79.034158	-11.628640	7.327599
